<svg width="19" height="18" viewBox="0 0 19 18" fill="none" xmlns="http://www.w3.org/2000/svg">
<g clip-path="url(#clip0_5_854)">
<path d="M3.875 4.78125C3.875 3.96074 4.20095 3.17383 4.78114 2.59364C5.36133 2.01345 6.14824 1.6875 6.96875 1.6875C7.78926 1.6875 8.57617 2.01345 9.15636 2.59364C9.73655 3.17383 10.0625 3.96074 10.0625 4.78125C10.0625 5.60176 9.73655 6.38867 9.15636 6.96886C8.57617 7.54905 7.78926 7.875 6.96875 7.875C6.14824 7.875 5.36133 7.54905 4.78114 6.96886C4.20095 6.38867 3.875 5.60176 3.875 4.78125ZM11.1875 6.46875C11.1875 6.13634 11.253 5.80719 11.3802 5.50008C11.5074 5.19298 11.6938 4.91393 11.9289 4.67889C12.1639 4.44384 12.443 4.25739 12.7501 4.13018C13.0572 4.00297 13.3863 3.9375 13.7188 3.9375C14.0512 3.9375 14.3803 4.00297 14.6874 4.13018C14.9945 4.25739 15.2736 4.44384 15.5086 4.67889C15.7437 4.91393 15.9301 5.19298 16.0573 5.50008C16.1845 5.80719 16.25 6.13634 16.25 6.46875C16.25 7.14008 15.9833 7.78391 15.5086 8.25861C15.0339 8.73332 14.3901 9 13.7188 9C13.0474 9 12.4036 8.73332 11.9289 8.25861C11.4542 7.78391 11.1875 7.14008 11.1875 6.46875ZM1.625 14.3438C1.625 12.9265 2.188 11.5673 3.19015 10.5651C4.1923 9.563 5.5515 9 6.96875 9C8.386 9 9.7452 9.563 10.7474 10.5651C11.7495 11.5673 12.3125 12.9265 12.3125 14.3438V14.346L12.3117 14.4352C12.3102 14.5306 12.2843 14.624 12.2367 14.7067C12.1891 14.7894 12.1212 14.8585 12.0395 14.9078C10.5089 15.8295 8.75545 16.3152 6.96875 16.3125C5.11475 16.3125 3.37925 15.7995 1.89875 14.9078C1.81689 14.8586 1.74888 14.7895 1.70111 14.7068C1.65335 14.6242 1.62742 14.5307 1.62575 14.4352L1.625 14.3438ZM13.4375 14.346L13.4368 14.454C13.4326 14.704 13.3729 14.9499 13.262 15.174C14.5713 15.2548 15.8791 14.9937 17.057 14.4165C17.1481 14.372 17.2255 14.3036 17.2809 14.2188C17.3364 14.1339 17.3678 14.0356 17.372 13.9342C17.3985 13.3052 17.2621 12.6799 16.9759 12.1191C16.6898 11.5582 16.2637 11.0807 15.7389 10.7329C15.2141 10.385 14.6083 10.1786 13.9803 10.1336C13.3523 10.0886 12.7233 10.2065 12.1542 10.476C12.9891 11.5924 13.4392 12.9497 13.4368 14.3438V14.346H13.4375Z" fill="#565656"/>
</g>
<defs>
<clipPath id="clip0_5_854">
<rect width="18" height="18" fill="white" transform="translate(0.5)"/>
</clipPath>
</defs>
</svg>
