<svg width="19" height="18" viewBox="0 0 19 18" fill="none" xmlns="http://www.w3.org/2000/svg">
<path fill-rule="evenodd" clip-rule="evenodd" d="M6.62075 1.93502C6.81611 1.83727 7.03155 1.78638 7.25 1.78638C7.46845 1.78638 7.68389 1.83727 7.87925 1.93502L11.624 3.80852C11.7035 3.84752 11.7965 3.84752 11.876 3.80852L14.7778 2.35727C14.9921 2.25016 15.2303 2.19962 15.4697 2.21044C15.7091 2.22125 15.9418 2.29307 16.1456 2.41908C16.3495 2.54508 16.5178 2.72109 16.6345 2.9304C16.7512 3.13971 16.8125 3.37537 16.8125 3.61502V12.9788C16.8125 13.5113 16.5117 13.9988 16.0347 14.2365L12.3785 16.0643C12.1833 16.1618 11.9682 16.2125 11.75 16.2125C11.5318 16.2125 11.3167 16.1618 11.1215 16.0643L7.376 14.1915C7.33689 14.1719 7.29375 14.1617 7.25 14.1617C7.20625 14.1617 7.16311 14.1719 7.124 14.1915L4.223 15.6428C4.00859 15.75 3.77031 15.8007 3.5308 15.79C3.29129 15.7793 3.05851 15.7075 2.85455 15.5815C2.6506 15.4554 2.48225 15.2793 2.3655 15.0699C2.24875 14.8605 2.18748 14.6248 2.1875 14.385V5.02127C2.1875 4.48877 2.48825 4.00127 2.9645 3.76352L6.62075 1.93577V1.93502ZM7.25 4.50002C7.39918 4.50002 7.54226 4.55928 7.64775 4.66477C7.75324 4.77026 7.8125 4.91333 7.8125 5.06252V11.25C7.8125 11.3992 7.75324 11.5423 7.64775 11.6478C7.54226 11.7533 7.39918 11.8125 7.25 11.8125C7.10082 11.8125 6.95774 11.7533 6.85225 11.6478C6.74676 11.5423 6.6875 11.3992 6.6875 11.25V5.06252C6.6875 4.91333 6.74676 4.77026 6.85225 4.66477C6.95774 4.55928 7.10082 4.50002 7.25 4.50002ZM12.3125 6.75002C12.3125 6.60083 12.2532 6.45776 12.1477 6.35227C12.0423 6.24678 11.8992 6.18752 11.75 6.18752C11.6008 6.18752 11.4577 6.24678 11.3523 6.35227C11.2468 6.45776 11.1875 6.60083 11.1875 6.75002V12.9375C11.1875 13.0867 11.2468 13.2298 11.3523 13.3353C11.4577 13.4408 11.6008 13.5 11.75 13.5C11.8992 13.5 12.0423 13.4408 12.1477 13.3353C12.2532 13.2298 12.3125 13.0867 12.3125 12.9375V6.75002Z" fill="#565656"/>
</svg>
