<svg width="80" height="16" viewBox="0 0 80 16" fill="none" xmlns="http://www.w3.org/2000/svg">
<path d="M7.99992 1.33337L10.0599 5.50671L14.6666 6.18004L11.3333 9.42671L12.1199 14.0134L7.99992 11.8467L3.87992 14.0134L4.66659 9.42671L1.33325 6.18004L5.93992 5.50671L7.99992 1.33337Z" fill="#D7FFF1" stroke="#D7FFF1" stroke-linecap="round" stroke-linejoin="round"/>
<path d="M23.9999 1.33337L26.0599 5.50671L30.6666 6.18004L27.3333 9.42671L28.1199 14.0134L23.9999 11.8467L19.8799 14.0134L20.6666 9.42671L17.3333 6.18004L21.9399 5.50671L23.9999 1.33337Z" fill="#D7FFF1" stroke="#D7FFF1" stroke-linecap="round" stroke-linejoin="round"/>
<path d="M39.9999 1.33337L42.0599 5.50671L46.6666 6.18004L43.3333 9.42671L44.1199 14.0134L39.9999 11.8467L35.8799 14.0134L36.6666 9.42671L33.3333 6.18004L37.9399 5.50671L39.9999 1.33337Z" fill="#D7FFF1" stroke="#D7FFF1" stroke-linecap="round" stroke-linejoin="round"/>
<path d="M55.9999 1.33337L58.0599 5.50671L62.6666 6.18004L59.3333 9.42671L60.1199 14.0134L55.9999 11.8467L51.8799 14.0134L52.6666 9.42671L49.3333 6.18004L53.9399 5.50671L55.9999 1.33337Z" fill="#D7FFF1" stroke="#D7FFF1" stroke-linecap="round" stroke-linejoin="round"/>
<path d="M71.9999 1.33337L74.0599 5.50671L78.6666 6.18004L75.3333 9.42671L76.1199 14.0134L71.9999 11.8467L67.8799 14.0134L68.6666 9.42671L65.3333 6.18004L69.9399 5.50671L71.9999 1.33337Z" stroke="#D7FFF1" stroke-linecap="round" stroke-linejoin="round"/>
</svg>
