<svg width="21" height="21" viewBox="0 0 21 21" fill="none" xmlns="http://www.w3.org/2000/svg">
<g clip-path="url(#clip0_14_523)">
<path d="M19.6718 3.04657C18.8634 3.61674 17.9685 4.05283 17.0213 4.33805C16.5129 3.75352 15.8373 3.33922 15.0858 3.15118C14.3343 2.96314 13.5432 3.01044 12.8194 3.28668C12.0957 3.56292 11.4742 4.05477 11.0391 4.69571C10.604 5.33664 10.3763 6.09575 10.3867 6.87035V7.71445C8.90327 7.75291 7.43339 7.42392 6.10793 6.75677C4.78247 6.08962 3.64257 5.10503 2.78976 3.89067C2.78976 3.89067 -0.586637 11.4876 7.01026 14.864C5.27186 16.044 3.20097 16.6357 1.10156 16.5522C8.69846 20.7727 17.9836 16.5522 17.9836 6.84502C17.9828 6.6099 17.9602 6.37536 17.916 6.14442C18.7775 5.29483 19.3855 4.22216 19.6718 3.04657V3.04657Z" stroke="#EAEAF1" stroke-opacity="0.8" stroke-width="0.8441" stroke-linecap="round" stroke-linejoin="round"/>
</g>
<defs>
<clipPath id="clip0_14_523">
<rect width="20.2584" height="20.2584" fill="white" transform="translate(0.257812 0.514648)"/>
</clipPath>
</defs>
</svg>
