<svg width="198" height="22" viewBox="0 0 198 22" fill="none" xmlns="http://www.w3.org/2000/svg">
<path d="M0 0H20.7736V21.309H0V0Z" fill="#1BB580"/>
<path d="M22.1582 0H42.9318V21.309H22.1582V0Z" fill="#1BB580"/>
<path d="M44.3164 0H65.09V21.309H44.3164V0Z" fill="#1BB580"/>
<path d="M66.4746 0H87.2482V21.309H66.4746V0Z" fill="#1BB580"/>
<path d="M88.6328 0H109.406V21.309H88.6328V0Z" fill="#1BB580"/>
<path d="M10.5865 13.8223L13.0471 13.1743L14.0752 16.4669L10.5865 13.8223ZM16.2493 9.56647H11.918L10.5865 5.32812L9.25513 9.56647H4.92383L8.42932 12.1935L7.09791 16.4319L10.6034 13.8048L12.7606 12.1935L16.2493 9.56647Z" fill="white"/>
<path d="M32.7447 13.8223L35.2053 13.1743L36.2334 16.4669L32.7447 13.8223ZM38.4075 9.56647H34.0762L32.7447 5.32812L31.4133 9.56647H27.082L30.5875 12.1935L29.2561 16.4319L32.7616 13.8048L34.9188 12.1935L38.4075 9.56647Z" fill="white"/>
<path d="M54.9049 13.8223L57.3655 13.1743L58.3935 16.4669L54.9049 13.8223ZM60.5676 9.56647H56.2363L54.9049 5.32812L53.5735 9.56647H49.2422L52.7477 12.1935L51.4163 16.4319L54.9218 13.8048L57.079 12.1935L60.5676 9.56647Z" fill="white"/>
<path d="M77.0631 13.8223L79.5237 13.1743L80.5517 16.4669L77.0631 13.8223ZM82.7258 9.56647H78.3945L77.0631 5.32812L75.7317 9.56647H71.4004L74.9059 12.1935L73.5745 16.4319L77.08 13.8048L79.2372 12.1935L82.7258 9.56647Z" fill="white"/>
<path d="M99.2213 13.8223L101.682 13.1743L102.71 16.4669L99.2213 13.8223ZM104.884 9.56647H100.553L99.2213 5.32812L97.8899 9.56647H93.5586L97.0641 12.1935L95.7327 16.4319L99.2382 13.8048L101.395 12.1935L104.884 9.56647Z" fill="white"/>
<path d="M125.193 5.21094C126.46 5.21094 127.376 5.73275 127.941 6.77637C128.379 7.58301 128.598 8.68815 128.598 10.0918C128.598 11.4225 128.399 12.5231 128.003 13.3936C127.429 14.6423 126.49 15.2666 125.187 15.2666C124.011 15.2666 123.136 14.7562 122.562 13.7354C122.083 12.8831 121.844 11.7393 121.844 10.3037C121.844 9.19173 121.987 8.23698 122.274 7.43945C122.812 5.95378 123.785 5.21094 125.193 5.21094ZM125.18 14.1455C125.818 14.1455 126.326 13.863 126.704 13.2979C127.082 12.7327 127.271 11.68 127.271 10.1396C127.271 9.02767 127.135 8.11393 126.861 7.39844C126.588 6.67839 126.057 6.31836 125.269 6.31836C124.544 6.31836 124.013 6.66016 123.676 7.34375C123.343 8.02279 123.177 9.02539 123.177 10.3516C123.177 11.3496 123.284 12.1517 123.498 12.7578C123.826 13.6829 124.387 14.1455 125.18 14.1455ZM130.539 8.06836V7.125C131.428 7.03841 132.048 6.89486 132.398 6.69434C132.749 6.48926 133.011 6.00846 133.185 5.25195H134.155V15H132.843V8.06836H130.539ZM146.884 12.0059C146.884 12.8535 146.758 13.512 146.508 13.9814C146.043 14.8382 145.159 15.2666 143.855 15.2666C143.104 15.2666 142.461 15.0638 141.928 14.6582C141.395 14.248 141.128 13.5212 141.128 12.4775V11.7598H142.406V12.4775C142.406 13.0244 142.527 13.4368 142.769 13.7148C143.015 13.9883 143.395 14.125 143.91 14.125C144.635 14.125 145.109 13.8766 145.332 13.3799C145.469 13.0745 145.537 12.498 145.537 11.6504V4.95801H146.884V12.0059ZM149.734 13.0518C149.734 13.4072 149.864 13.6875 150.124 13.8926C150.384 14.0977 150.691 14.2002 151.047 14.2002C151.48 14.2002 151.899 14.0999 152.305 13.8994C152.988 13.5667 153.33 13.0221 153.33 12.2656V11.2744C153.18 11.3701 152.986 11.4499 152.749 11.5137C152.512 11.5775 152.28 11.623 152.052 11.6504L151.307 11.7461C150.86 11.8053 150.525 11.8988 150.302 12.0264C149.924 12.2406 149.734 12.5824 149.734 13.0518ZM152.715 10.5635C152.997 10.527 153.187 10.4085 153.282 10.208C153.337 10.0986 153.364 9.94141 153.364 9.73633C153.364 9.31706 153.214 9.014 152.913 8.82715C152.617 8.63574 152.191 8.54004 151.635 8.54004C150.992 8.54004 150.536 8.71322 150.268 9.05957C150.117 9.25098 150.019 9.53581 149.974 9.91406H148.825C148.848 9.01172 149.14 8.38509 149.7 8.03418C150.265 7.67871 150.919 7.50098 151.662 7.50098C152.523 7.50098 153.223 7.66504 153.761 7.99316C154.294 8.32129 154.561 8.83171 154.561 9.52441V13.7422C154.561 13.8698 154.586 13.9723 154.636 14.0498C154.69 14.1273 154.802 14.166 154.971 14.166C155.025 14.166 155.087 14.1637 155.155 14.1592C155.224 14.1501 155.297 14.1387 155.374 14.125V15.0342C155.183 15.0889 155.037 15.123 154.937 15.1367C154.836 15.1504 154.7 15.1572 154.526 15.1572C154.103 15.1572 153.795 15.0068 153.604 14.7061C153.503 14.5465 153.433 14.321 153.392 14.0293C153.141 14.3574 152.781 14.6423 152.312 14.8838C151.842 15.1253 151.325 15.2461 150.76 15.2461C150.081 15.2461 149.525 15.041 149.092 14.6309C148.663 14.2161 148.449 13.6989 148.449 13.0791C148.449 12.4001 148.661 11.8737 149.085 11.5C149.509 11.1263 150.065 10.8962 150.753 10.8096L152.715 10.5635ZM156.584 7.67871H157.753V8.71777C158.099 8.28939 158.466 7.98177 158.854 7.79492C159.241 7.60807 159.672 7.51465 160.146 7.51465C161.185 7.51465 161.886 7.87695 162.251 8.60156C162.451 8.99805 162.552 9.56543 162.552 10.3037V15H161.301V10.3857C161.301 9.93913 161.235 9.5791 161.103 9.30566C160.884 8.84993 160.487 8.62207 159.913 8.62207C159.621 8.62207 159.382 8.65169 159.195 8.71094C158.858 8.8112 158.562 9.01172 158.307 9.3125C158.102 9.55404 157.967 9.80469 157.903 10.0645C157.844 10.3197 157.814 10.6865 157.814 11.165V15H156.584V7.67871ZM167.809 15C167.854 14.1569 168.027 13.4232 168.328 12.7988C168.633 12.1745 169.226 11.6071 170.105 11.0967L171.418 10.3379C172.006 9.99609 172.418 9.70443 172.655 9.46289C173.029 9.08464 173.216 8.65169 173.216 8.16406C173.216 7.5944 173.045 7.14323 172.703 6.81055C172.361 6.47331 171.906 6.30469 171.336 6.30469C170.493 6.30469 169.91 6.6237 169.586 7.26172C169.413 7.60352 169.317 8.07747 169.299 8.68359H168.048C168.062 7.83138 168.219 7.13639 168.52 6.59863C169.053 5.65072 169.994 5.17676 171.343 5.17676C172.464 5.17676 173.282 5.47982 173.797 6.08594C174.316 6.69206 174.576 7.36654 174.576 8.10938C174.576 8.89323 174.3 9.56315 173.749 10.1191C173.43 10.4427 172.858 10.8346 172.033 11.2949L171.097 11.8145C170.65 12.0605 170.299 12.2952 170.044 12.5186C169.588 12.915 169.301 13.3548 169.183 13.8379H174.528V15H167.809ZM178.951 5.21094C180.218 5.21094 181.134 5.73275 181.699 6.77637C182.137 7.58301 182.355 8.68815 182.355 10.0918C182.355 11.4225 182.157 12.5231 181.761 13.3936C181.187 14.6423 180.248 15.2666 178.944 15.2666C177.769 15.2666 176.894 14.7562 176.319 13.7354C175.841 12.8831 175.602 11.7393 175.602 10.3037C175.602 9.19173 175.745 8.23698 176.032 7.43945C176.57 5.95378 177.543 5.21094 178.951 5.21094ZM178.938 14.1455C179.576 14.1455 180.084 13.863 180.462 13.2979C180.84 12.7327 181.029 11.68 181.029 10.1396C181.029 9.02767 180.893 8.11393 180.619 7.39844C180.346 6.67839 179.815 6.31836 179.026 6.31836C178.302 6.31836 177.771 6.66016 177.434 7.34375C177.101 8.02279 176.935 9.02539 176.935 10.3516C176.935 11.3496 177.042 12.1517 177.256 12.7578C177.584 13.6829 178.145 14.1455 178.938 14.1455ZM183.395 15C183.44 14.1569 183.613 13.4232 183.914 12.7988C184.219 12.1745 184.812 11.6071 185.691 11.0967L187.004 10.3379C187.592 9.99609 188.004 9.70443 188.241 9.46289C188.615 9.08464 188.802 8.65169 188.802 8.16406C188.802 7.5944 188.631 7.14323 188.289 6.81055C187.947 6.47331 187.492 6.30469 186.922 6.30469C186.079 6.30469 185.495 6.6237 185.172 7.26172C184.999 7.60352 184.903 8.07747 184.885 8.68359H183.634C183.647 7.83138 183.805 7.13639 184.105 6.59863C184.639 5.65072 185.58 5.17676 186.929 5.17676C188.05 5.17676 188.868 5.47982 189.383 6.08594C189.902 6.69206 190.162 7.36654 190.162 8.10938C190.162 8.89323 189.886 9.56315 189.335 10.1191C189.016 10.4427 188.444 10.8346 187.619 11.2949L186.683 11.8145C186.236 12.0605 185.885 12.2952 185.63 12.5186C185.174 12.915 184.887 13.3548 184.769 13.8379H190.114V15H183.395ZM194.387 15.2666C193.229 15.2666 192.388 14.9499 191.864 14.3164C191.345 13.6784 191.085 12.9036 191.085 11.9922H192.37C192.425 12.6257 192.543 13.0859 192.726 13.373C193.045 13.888 193.621 14.1455 194.455 14.1455C195.102 14.1455 195.622 13.9723 196.014 13.626C196.406 13.2796 196.602 12.833 196.602 12.2861C196.602 11.6117 196.394 11.14 195.979 10.8711C195.569 10.6022 194.997 10.4678 194.264 10.4678C194.182 10.4678 194.097 10.4701 194.011 10.4746C193.929 10.4746 193.844 10.4769 193.758 10.4814V9.39453C193.885 9.4082 193.993 9.41732 194.079 9.42188C194.166 9.42643 194.259 9.42871 194.359 9.42871C194.82 9.42871 195.198 9.35579 195.494 9.20996C196.014 8.95475 196.273 8.49902 196.273 7.84277C196.273 7.35514 196.1 6.97917 195.754 6.71484C195.408 6.45052 195.004 6.31836 194.544 6.31836C193.724 6.31836 193.156 6.5918 192.842 7.13867C192.669 7.43945 192.571 7.86784 192.548 8.42383H191.331C191.331 7.69466 191.477 7.07487 191.769 6.56445C192.27 5.65299 193.152 5.19727 194.414 5.19727C195.412 5.19727 196.185 5.42057 196.731 5.86719C197.278 6.30924 197.552 6.95182 197.552 7.79492C197.552 8.39648 197.39 8.88411 197.066 9.25781C196.866 9.49023 196.606 9.67253 196.287 9.80469C196.802 9.94596 197.203 10.2194 197.49 10.625C197.782 11.026 197.928 11.5182 197.928 12.1016C197.928 13.0358 197.62 13.7969 197.005 14.3848C196.39 14.9727 195.517 15.2666 194.387 15.2666Z" fill="white"/>
</svg>
